
<svg width="1200" height="1200" viewBox="0 0 1200 1200" fill="none" xmlns="http://www.w3.org/2000/svg">
<rect width="1200" height="1200" fill="url(#paint0_linear_302_22)"/>
    <path d="M669.083 651.687V460.333C669.083 423.424 654.421 388.026 628.322 361.928C602.224 335.829 566.826 321.167 529.917 321.167C493.007 321.167 457.61 335.829 431.511 361.928C405.412 388.026 390.75 423.424 390.75 460.333V651.687C390.75 711.665 414.576 769.186 456.987 811.597C499.397 854.007 556.918 877.833 616.896 877.833C676.873 877.833 734.395 854.007 776.805 811.597C819.216 769.186 843.042 711.665 843.042 651.687V321.167H912.625V651.687C912.625 730.12 881.468 805.34 826.008 860.8C770.548 916.26 695.328 947.417 616.896 947.417C538.464 947.417 463.244 916.26 407.784 860.8C352.324 805.34 321.167 730.12 321.167 651.687V460.333C321.167 404.969 343.16 351.873 382.308 312.725C421.456 273.577 474.553 251.583 529.917 251.583C585.281 251.583 638.377 273.577 677.525 312.725C716.673 351.873 738.667 404.969 738.667 460.333V651.687C738.667 683.983 725.837 714.956 703.001 737.792C680.164 760.629 649.192 773.458 616.896 773.458C584.6 773.458 553.627 760.629 530.791 737.792C507.954 714.956 495.125 683.983 495.125 651.687V460.333H564.708V651.687C564.708 665.528 570.207 678.803 579.994 688.59C589.781 698.377 603.055 703.875 616.896 703.875C630.737 703.875 644.011 698.377 653.798 688.59C663.585 678.803 669.083 665.528 669.083 651.687V651.687Z" fill="white"/>
    <path d="M697.083 632.687V441.333C697.083 402.567 681.684 365.389 654.272 337.978C626.861 310.566 589.683 295.167 550.917 295.167C512.151 295.167 474.973 310.566 447.561 337.978C420.15 365.389 404.75 402.567 404.75 441.333V632.687C404.75 694.522 429.314 753.823 473.037 797.546C516.76 841.27 576.062 865.833 637.896 865.833C699.73 865.833 759.032 841.27 802.755 797.546C846.478 753.823 871.042 694.522 871.042 632.687V309.167H926.625V632.687C926.625 709.263 896.205 782.703 842.058 836.85C787.911 890.997 714.472 921.417 637.896 921.417C561.32 921.417 487.881 890.997 433.734 836.85C379.586 782.703 349.167 709.263 349.167 632.687V441.333C349.167 387.826 370.422 336.51 408.258 298.675C446.093 260.839 497.409 239.583 550.917 239.583C604.424 239.583 655.74 260.839 693.576 298.675C731.411 336.51 752.667 387.826 752.667 441.333V632.687C752.667 663.127 740.575 692.319 719.051 713.843C697.527 735.366 668.335 747.458 637.896 747.458C607.457 747.458 578.264 735.366 556.741 713.843C535.217 692.319 523.125 663.127 523.125 632.687V448.333H578.708V632.687C578.708 648.385 584.944 663.44 596.044 674.539C607.144 685.639 622.198 691.875 637.896 691.875C653.593 691.875 668.648 685.639 679.748 674.539C690.848 663.44 697.083 648.385 697.083 632.687Z" stroke="#00046C" stroke-width="14"/>
    <defs>
        <linearGradient id="paint0_linear_302_22" x1="0" y1="0" x2="1191" y2="1172.5" gradientUnits="userSpaceOnUse">
            <stop stop-color="#2B99E8"/>
            <stop offset="1" stop-color="#2C29F7"/>
        </linearGradient>
    </defs>
</svg>
